<?xml version="1.0" standalone="no"?><!DOCTYPE svg PUBLIC "-//W3C//DTD SVG 1.1//EN" "http://www.w3.org/Graphics/SVG/1.1/DTD/svg11.dtd"><svg t="1524898319253" class="icon" style="" viewBox="0 0 1146 1024" version="1.1" xmlns="http://www.w3.org/2000/svg" p-id="2480" xmlns:xlink="http://www.w3.org/1999/xlink" width="44.765625" height="40"><defs><style type="text/css"></style></defs><path d="M733.696 424.96c-7.68 0-14.848 0.512-22.528 1.024-48.64-104.96-152.064-177.664-271.872-177.664-156.672 0-285.184 124.416-300.032 283.136-78.848 19.456-137.216 92.672-137.216 180.736 0 102.4 79.872 185.344 178.176 185.344h536.064V896c5.632 0.512 11.776 0.512 17.408 0.512 125.44 0 226.304-105.472 226.304-236.032 0-129.536-101.376-235.52-226.304-235.52z" fill="#94B0FF" p-id="2481"></path><path d="M961.536 279.04c-6.144 0-12.288 0.512-18.432 1.024C903.168 194.56 819.712 135.68 722.432 135.68c-69.12 0-131.072 29.696-175.616 77.824 81.408 27.136 150.016 84.48 194.048 159.232 148.48 3.584 267.776 129.024 270.336 283.648 77.824-22.528 135.168-96.768 135.168-184.832-0.512-106.496-83.456-192.512-184.832-192.512z" fill="#94B0FF" p-id="2482"></path></svg>