<?xml version="1.0" standalone="no"?><!DOCTYPE svg PUBLIC "-//W3C//DTD SVG 1.1//EN" "http://www.w3.org/Graphics/SVG/1.1/DTD/svg11.dtd"><svg t="1524900516333" class="icon" style="" viewBox="0 0 1024 1024" version="1.1" xmlns="http://www.w3.org/2000/svg" p-id="3200" xmlns:xlink="http://www.w3.org/1999/xlink" width="40" height="40"><defs><style type="text/css"></style></defs><path d="M553.1 703.3c0 23.2-18.8 42.1-42.1 42.1s-42-18.9-42-42.1 42.1-73.4 42.1-73.4 42 50.1 42 73.4zM554.5 873c0 23.2-18.8 42.1-42.1 42.1-23.2 0-42.1-18.8-42.1-42.1 0-23.2 42.1-73.4 42.1-73.4s42.1 50.1 42.1 73.4z" fill="#6695FF" p-id="3201"></path><path d="M703.1 244.4c-19.4-77.3-88.9-134.8-172.2-135.3-83.1-0.5-153.1 56-173.5 132.8-1.7-0.1-3.4-0.3-5.2-0.3-98.7-0.5-179.2 79.1-179.7 177.8-0.5 98.1 78.1 178.1 176 179.6v0.1h317v-0.4c2.2 0.1 4.3 0.4 6.5 0.4 98.7 0.5 179.2-79.1 179.7-177.8 0.4-88.7-63.9-162.5-148.6-176.9z" fill="#94B0FF" p-id="3202"></path></svg>