<?xml version="1.0" standalone="no"?><!DOCTYPE svg PUBLIC "-//W3C//DTD SVG 1.1//EN" "http://www.w3.org/Graphics/SVG/1.1/DTD/svg11.dtd"><svg t="1524901713898" class="icon" style="" viewBox="0 0 1029 1024" version="1.1" xmlns="http://www.w3.org/2000/svg" p-id="3898" xmlns:xlink="http://www.w3.org/1999/xlink" width="40.1953125" height="40"><defs><style type="text/css"></style></defs><path d="M744.9856 196.9408c-23.2192-93.0304-106.9824-162.2272-207.232-162.816-100.1216-0.6144-184.2432 67.3792-208.7936 159.8208-2.048-0.128-4.096-0.3584-6.2464-0.3584a215.04 215.04 0 1 0-4.5824 430.1056v0.128h381.4912v-0.3584c2.6368 0.128 5.1712 0.4864 7.8336 0.4864 118.784 0.6144 215.6544-95.2064 216.2688-213.9648 0.5632-106.7776-76.8256-195.584-178.7392-213.0432z m0 0" fill="#94B0FF" p-id="3899"></path><path d="M457.5488 738.6368l61.696-61.696 61.6704 61.696-61.696 61.6704zM457.5488 930.5088l61.6704-61.696 61.696 61.696-61.696 61.6704zM239.4368 744.8064l61.696-61.6704 61.6448 61.696-61.6704 61.6448zM239.4368 936.704l61.696-61.6704 61.6448 61.696-61.6704 61.6448zM671.1552 733.44l61.6704-61.696 61.6704 61.696-61.6704 61.696zM671.1552 925.3376l61.696-61.696 61.6448 61.696-61.6704 61.6704z" fill="#6695FF" p-id="3900"></path></svg>