<?xml version="1.0" standalone="no"?><!DOCTYPE svg PUBLIC "-//W3C//DTD SVG 1.1//EN" "http://www.w3.org/Graphics/SVG/1.1/DTD/svg11.dtd"><svg t="1524901951083" class="icon" style="" viewBox="0 0 1024 1024" version="1.1" xmlns="http://www.w3.org/2000/svg" p-id="5056" xmlns:xlink="http://www.w3.org/1999/xlink" width="40" height="40"><defs><style type="text/css"></style></defs><path d="M361.6 703.6c0 23.2-18.8 42.1-42.1 42.1-23.2 0-42.1-18.8-42.1-42.1s42.1-73.4 42.1-73.4 42.1 50.2 42.1 73.4zM536.6 703.6c0 23.2-18.8 42.1-42.1 42.1-23.2 0-42.1-18.8-42.1-42.1s42.1-73.4 42.1-73.4 42.1 50.2 42.1 73.4zM363 873.3c0 23.2-18.8 42.1-42.1 42.1s-42.1-18.8-42.1-42.1 42.1-73.4 42.1-73.4 42.1 50.2 42.1 73.4z" fill="#6695FF" p-id="5057"></path><path d="M703.5 244.7c-19.3-77.3-88.9-134.8-172.2-135.3-83.2-0.5-153.1 56-173.5 132.8-1.7-0.1-3.5-0.3-5.2-0.3-98.7-0.5-179.2 79.1-179.7 177.8-0.5 98.1 78.1 178.1 176 179.6v0.1h317v-0.4c2.2 0.1 4.3 0.4 6.5 0.4 98.6 0.6 179.1-79 179.6-177.7 0.5-88.8-63.8-162.5-148.5-177z" fill="#94B0FF" p-id="5058"></path><path d="M715.1 674.9h-24.8l12.4-21.5c3.4-5.9 1.4-13.5-4.5-17l-1.1-0.6c-5.9-3.4-13.5-1.4-17 4.5l-12.4 21.5-12.4-21.5c-3.4-5.9-11-8-17-4.5l-1.1 0.6c-5.9 3.4-8 11-4.5 17l12.4 21.5h-24.8c-6.8 0-12.4 5.6-12.4 12.4v1.2c0 6.8 5.6 12.4 12.4 12.4h24.8l-12.4 21.5c-3.4 5.9-1.4 13.5 4.5 17l1.1 0.6c5.9 3.4 13.5 1.4 17-4.5l12.4-21.5 12.4 21.5c3.4 5.9 11 8 17 4.5l1.1-0.6c5.9-3.4 8-11 4.5-17L690.3 701h24.8c6.8 0 12.4-5.6 12.4-12.4v-1.2c0-6.9-5.6-12.5-12.4-12.5zM715.1 844.6h-24.8l12.4-21.5c3.4-5.9 1.4-13.5-4.5-17l-1.1-0.6c-5.9-3.4-13.5-1.4-17 4.5l-12.4 21.5-12.4-21.5c-3.4-5.9-11-8-17-4.5l-1.1 0.6c-5.9 3.4-8 11-4.5 17l12.4 21.5h-24.8c-6.8 0-12.4 5.6-12.4 12.4v1.2c0 6.8 5.6 12.4 12.4 12.4h24.8l-12.4 21.5c-3.4 5.9-1.4 13.5 4.5 17l1.1 0.6c5.9 3.4 13.5 1.4 17-4.5l12.4-21.5 12.4 21.5c3.4 5.9 11 8 17 4.5l1.1-0.6c5.9-3.4 8-11 4.5-17l-12.4-21.5h24.8c6.8 0 12.4-5.6 12.4-12.4V857c0-6.8-5.6-12.4-12.4-12.4zM542 844.6h-24.8l12.4-21.5c3.4-5.9 1.4-13.5-4.5-17l-1.1-0.6c-5.9-3.4-13.5-1.4-17 4.5l-12.4 21.5-12.4-21.5c-3.4-5.9-11-8-17-4.5l-1.1 0.6c-5.9 3.4-8 11-4.5 17l12.4 21.5h-24.8c-6.8 0-12.4 5.6-12.4 12.4v1.2c0 6.8 5.6 12.4 12.4 12.4H472l-12.4 21.5c-3.4 5.9-1.4 13.5 4.5 17l1.1 0.6c5.9 3.4 13.5 1.4 17-4.5l12.4-21.5 12.4 21.5c3.4 5.9 11 8 17 4.5l1.1-0.6c5.9-3.4 8-11 4.5-17l-12.4-21.5H542c6.8 0 12.4-5.6 12.4-12.4V857c0-6.8-5.6-12.4-12.4-12.4z" fill="#6695FF" p-id="5059"></path></svg>