<?xml version="1.0" standalone="no"?><!DOCTYPE svg PUBLIC "-//W3C//DTD SVG 1.1//EN" "http://www.w3.org/Graphics/SVG/1.1/DTD/svg11.dtd"><svg t="1524900547262" class="icon" style="" viewBox="0 0 1024 1024" version="1.1" xmlns="http://www.w3.org/2000/svg" p-id="3458" xmlns:xlink="http://www.w3.org/1999/xlink" width="40" height="40"><defs><style type="text/css"></style></defs><path d="M380.8 703.5c0 23.2-18.8 42.1-42.1 42.1-23.2 0-42.1-18.8-42.1-42.1s42.1-73.4 42.1-73.4 42.1 50.2 42.1 73.4zM554 703.5c0 23.2-18.8 42.1-42.1 42.1s-42.1-18.8-42.1-42.1 42.1-73.4 42.1-73.4 42.1 50.2 42.1 73.4zM727.1 703.5c0 23.2-18.8 42.1-42.1 42.1-23.2 0-42.1-18.8-42.1-42.1s42.1-73.4 42.1-73.4 42.1 50.2 42.1 73.4zM554.7 873.2c0 23.2-18.8 42.1-42.1 42.1-23.2 0-42.1-18.8-42.1-42.1s42.1-73.4 42.1-73.4 42.1 50.2 42.1 73.4zM727.1 873.2c0 23.2-18.8 42.1-42.1 42.1s-42.1-18.8-42.1-42.1 42.1-73.4 42.1-73.4 42.1 50.2 42.1 73.4zM382.2 873.2c0 23.2-18.8 42.1-42.1 42.1-23.2 0-42.1-18.8-42.1-42.1s42.1-73.4 42.1-73.4 42.1 50.2 42.1 73.4z" fill="#6695FF" p-id="3459"></path><path d="M703 244.6c-19.3-77.3-88.9-134.8-172.2-135.3-83.2-0.5-153.1 56-173.5 132.8-1.7-0.1-3.5-0.3-5.2-0.3-98.7-0.5-179.2 79.1-179.7 177.8-0.5 98.1 78.1 178.1 176 179.6v0.1h317v-0.3c2.2 0.1 4.3 0.4 6.5 0.4 98.7 0.5 179.2-79.1 179.7-177.8 0.4-88.8-64-162.5-148.6-177z" fill="#94B0FF" p-id="3460"></path></svg>