<?xml version="1.0" standalone="no"?><!DOCTYPE svg PUBLIC "-//W3C//DTD SVG 1.1//EN" "http://www.w3.org/Graphics/SVG/1.1/DTD/svg11.dtd"><svg t="1524901625035" class="icon" style="" viewBox="0 0 1024 1024" version="1.1" xmlns="http://www.w3.org/2000/svg" p-id="3259" xmlns:xlink="http://www.w3.org/1999/xlink" width="40" height="40"><defs><style type="text/css"></style></defs><path d="M702.3104 241.9968c-19.4048-77.312-88.9088-134.8096-172.2112-135.296-83.0976-0.512-153.088 56.0128-173.4912 132.8128-1.6896-0.1024-3.4048-0.3072-5.1968-0.3072a178.7136 178.7136 0 0 0-3.712 357.4016v0.1024h317.0048v-0.4096c2.2016 0.1024 4.3008 0.4096 6.5024 0.4096 98.688 0.512 179.2-79.104 179.712-177.792 0.384-88.6272-63.9232-162.4064-148.608-176.9216zM473.5744 734.7712c-2.3296 9.3696-7.0144 18.7136-7.0144 25.728-4.6848 14.0288 7.0144 18.7136 14.0288 4.6848 2.3296-7.0144 7.0144-16.384 9.3696-25.728 7.0144-16.384 25.728-88.9088 23.3984-88.9088s-32.768 67.84-39.7824 84.224zM637.3632 762.8544c-4.6848 14.0288-9.3696 25.728-11.6992 37.4272-4.6848 21.0688 11.6992 28.0832 21.0688 7.0144 4.6848-11.6992 11.6992-23.3984 16.384-37.4272 9.3696-23.3984 39.7824-131.0208 35.0976-133.376-4.6848 0-51.4816 100.608-60.8512 126.3616zM326.1696 774.5536c-4.6848 14.0288-9.3696 28.0832-11.6992 39.7824-4.6848 21.0688 11.6992 28.0832 21.0688 7.0144 4.6848-11.6992 11.6992-23.3984 16.384-37.4272 9.3696-23.3984 39.7824-131.0208 35.0976-133.376-4.6848-0.0256-51.4816 100.608-60.8512 124.0064z" fill="#94B0FF" p-id="3260"></path></svg>