<?xml version="1.0" standalone="no"?><!DOCTYPE svg PUBLIC "-//W3C//DTD SVG 1.1//EN" "http://www.w3.org/Graphics/SVG/1.1/DTD/svg11.dtd"><svg t="1524902111396" class="icon" style="" viewBox="0 0 1024 1024" version="1.1" xmlns="http://www.w3.org/2000/svg" p-id="5837" xmlns:xlink="http://www.w3.org/1999/xlink" width="40" height="40"><defs><style type="text/css"></style></defs><path d="M712.2 684.3c-1.5 0-2.9-0.2-4.3-0.4-1.4 0.2-2.8 0.4-4.2 0.4h-478c-17.6 0-32-14.4-32-32s14.4-32 32-32h478c1.3 0 2.6 0.2 3.8 0.4 1.5-0.2 3.1-0.5 4.6-0.5 29.5 0 53.5-24 53.5-53.5s-24-53.5-53.5-53.5c-16.2 0-31.5 7.3-41.7 19.9-11.1 13.7-31.3 15.9-45 4.8-13.8-11.1-15.9-31.3-4.8-45 22.5-27.8 55.8-43.7 91.5-43.7 64.8 0 117.5 52.7 117.5 117.5S777 684.3 712.2 684.3zM193.6 779.4c0-18.7 15.3-33.9 33.9-33.9h568.3c18.7 0 33.9 15.3 33.9 33.9 0 18.7-15.3 33.9-33.9 33.9H227.6c-18.7 0.1-34-15.2-34-33.9z" fill="#94b0ff" p-id="5838"></path><path d="M249.6 511.9m-40 0a40 40 0 1 0 80 0 40 40 0 1 0-80 0Z" fill="#94b0ff" p-id="5839"></path><path d="M424.2 511.9m-40 0a40 40 0 1 0 80 0 40 40 0 1 0-80 0Z" fill="#94b0ff" p-id="5840"></path><path d="M341 381.2m-40 0a40 40 0 1 0 80 0 40 40 0 1 0-80 0Z" fill="#94b0ff" p-id="5841"></path><path d="M247.5 250.6m-40 0a40 40 0 1 0 80 0 40 40 0 1 0-80 0Z" fill="#94b0ff" p-id="5842"></path><path d="M424.2 250.6m-40 0a40 40 0 1 0 80 0 40 40 0 1 0-80 0Z" fill="#94b0ff" p-id="5843"></path><path d="M601 250.6m-40 0a40 40 0 1 0 80 0 40 40 0 1 0-80 0Z" fill="#94b0ff" p-id="5844"></path><path d="M524.4 381.2m-40 0a40 40 0 1 0 80 0 40 40 0 1 0-80 0Z" fill="#94b0ff" p-id="5845"></path><path d="M777.7 250.6m-40 0a40 40 0 1 0 80 0 40 40 0 1 0-80 0Z" fill="#94b0ff" p-id="5846"></path></svg>