<?xml version="1.0" standalone="no"?><!DOCTYPE svg PUBLIC "-//W3C//DTD SVG 1.1//EN" "http://www.w3.org/Graphics/SVG/1.1/DTD/svg11.dtd"><svg t="1524902127588" class="icon" style="" viewBox="0 0 1024 1024" version="1.1" xmlns="http://www.w3.org/2000/svg" p-id="5973" xmlns:xlink="http://www.w3.org/1999/xlink" width="40" height="40"><defs><style type="text/css"></style></defs><path d="M927.3 704H96.2c-17.6 0-32-14.4-32-32s14.4-32 32-32h831.1c17.6 0 32 14.4 32 32s-14.4 32-32 32zM927.3 929H96.2c-17.6 0-32-14.4-32-32s14.4-32 32-32h831.1c17.6 0 32 14.4 32 32s-14.4 32-32 32z" fill="#94b0ff" p-id="5974"></path><path d="M177 516m-49 0a49 49 0 1 0 98 0 49 49 0 1 0-98 0Z" fill="#94b0ff" p-id="5975"></path><path d="M401.1 516m-49 0a49 49 0 1 0 98 0 49 49 0 1 0-98 0Z" fill="#94b0ff" p-id="5976"></path><path d="M625.1 516m-49 0a49 49 0 1 0 98 0 49 49 0 1 0-98 0Z" fill="#94b0ff" p-id="5977"></path><path d="M849.1 516m-49 0a49 49 0 1 0 98 0 49 49 0 1 0-98 0Z" fill="#94b0ff" p-id="5978"></path><path d="M289 349.6m-49 0a49 49 0 1 0 98 0 49 49 0 1 0-98 0Z" fill="#94b0ff" p-id="5979"></path><path d="M513 349.6m-49 0a49 49 0 1 0 98 0 49 49 0 1 0-98 0Z" fill="#94b0ff" p-id="5980"></path><path d="M737 349.6m-49 0a49 49 0 1 0 98 0 49 49 0 1 0-98 0Z" fill="#94b0ff" p-id="5981"></path><path d="M177 183.2m-49 0a49 49 0 1 0 98 0 49 49 0 1 0-98 0Z" fill="#94b0ff" p-id="5982"></path><path d="M401.1 183.2m-49 0a49 49 0 1 0 98 0 49 49 0 1 0-98 0Z" fill="#94b0ff" p-id="5983"></path><path d="M625.1 183.2m-49 0a49 49 0 1 0 98 0 49 49 0 1 0-98 0Z" fill="#94b0ff" p-id="5984"></path><path d="M849.1 183.2m-49 0a49 49 0 1 0 98 0 49 49 0 1 0-98 0Z" fill="#94b0ff" p-id="5985"></path></svg>