<?xml version="1.0" standalone="no"?><!DOCTYPE svg PUBLIC "-//W3C//DTD SVG 1.1//EN" "http://www.w3.org/Graphics/SVG/1.1/DTD/svg11.dtd"><svg t="1524902245173" class="icon" style="" viewBox="0 0 1024 1024" version="1.1" xmlns="http://www.w3.org/2000/svg" p-id="6647" xmlns:xlink="http://www.w3.org/1999/xlink" width="40" height="40"><defs><style type="text/css"></style></defs><path d="M702.532628 444.636332 661.717108 557.330511 743.348148 557.330511 703.616226 444.636332Z" fill="#94b0ff" p-id="6648"></path><path d="M513.264198 7.223986C233.695944 7.223986 7.223986 233.695944 7.223986 513.264198c0 279.568254 226.471958 506.040212 506.040212 506.040212 279.568254 0 506.040212-226.471958 506.040212-506.040212C1019.304409 233.695944 792.832451 7.223986 513.264198 7.223986zM422.964374 676.165079 357.226102 676.165079l-114.861376-180.960847 0 180.599647-72.239859 0 0-307.3806 65.377072 0 115.222575 180.599647 0-180.599647 72.239859 0L422.964374 676.165079zM505.679012 675.80388l-65.015873 0 97.16261-307.0194 65.377072 0L505.679012 675.80388zM784.886067 676.165079l-23.839153-68.627866-117.389771 0-24.561552 68.627866-69.711464 0 118.834568-307.3806 70.795062 0 117.389771 307.3806L784.886067 676.165079z" fill="#94b0ff" p-id="6649"></path></svg>