<?xml version="1.0" standalone="no"?><!DOCTYPE svg PUBLIC "-//W3C//DTD SVG 1.1//EN" "http://www.w3.org/Graphics/SVG/1.1/DTD/svg11.dtd"><svg t="1524898945057" class="icon" style="" viewBox="0 0 1024 1024" version="1.1" xmlns="http://www.w3.org/2000/svg" p-id="2236" xmlns:xlink="http://www.w3.org/1999/xlink" width="40" height="40"><defs><style type="text/css"></style></defs><path d="M800.8 457.6H130c-17.6 0-32-14.4-32-32s14.4-32 32-32h670.8c17.6 0 32 14.4 32 32s-14.4 32-32 32zM804 630.4H472.4c-15.3 0-27.8-12.5-27.8-27.8v-8.3c0-15.3 12.5-27.8 27.8-27.8H804c15.3 0 27.8 12.5 27.8 27.8v8.3c0 15.3-12.5 27.8-27.8 27.8z" fill="#94b0ff" p-id="2237"></path><path d="M794.9 457.6c-17.7 0-32-14.3-32-32s14.3-32 32-32c32.5 0 59-26.5 59-59s-26.5-59-59-59c-17.7 0-32-14.3-32-32s14.3-32 32-32c67.8 0 123 55.2 123 123s-55.1 123-123 123zM794 806.7c-17.7 0-32-14.3-32-32s14.3-32 32-32c30.9 0 56.1-25.2 56.1-56.1s-25.2-56.1-56.1-56.1c-17.7 0-32-14.3-32-32s14.3-32 32-32c66.2 0 120.1 53.9 120.1 120.1 0 66.2-53.9 120.1-120.1 120.1zM351.1 630.4H221.5c-17.6 0-32-14.4-32-32s14.4-32 32-32h129.6c17.6 0 32 14.4 32 32s-14.4 32-32 32z" fill="#94b0ff" p-id="2238"></path></svg>