<?xml version="1.0" standalone="no"?><!DOCTYPE svg PUBLIC "-//W3C//DTD SVG 1.1//EN" "http://www.w3.org/Graphics/SVG/1.1/DTD/svg11.dtd"><svg t="1524899743626" class="icon" style="" viewBox="0 0 1024 1024" version="1.1" xmlns="http://www.w3.org/2000/svg" p-id="3265" xmlns:xlink="http://www.w3.org/1999/xlink" width="40" height="40"><defs><style type="text/css"></style></defs><path d="M949.777043 214.494189c-16.33913-24.666796-49.799196-26.743084-76.224032-32.348756-46.825468-9.934257-94.118588-18.040888-141.095505-27.27111-105.691157-20.767999-211.4212-41.370223-317.103148-62.213947-24.437575-4.819772-48.886407-9.596566-73.333192-14.386662l-28.213575 6.046716-189.465143 126.98002c0 0-1.990331-31.884175-2.013867-32.250518-0.88823-14.309914-17.720593-21.710464-32.769334-21.014616-12.43931 0.577145-23.663956 6.688329-23.663956 19.000749 0 0.010233 0 745.750765 0 745.750765l10.07445 16.127306 30.232558 0 16.126282-16.127306L122.328581 314.092581 299.695175 463.243553c70.53445-12.458753 140.982942-25.585725 211.656561-37.234019 113.246227-18.659989 231.03798-33.326013 342.404394-60.632939 29.318746-7.187703 68.852134-9.251711 88.455611-35.399231C962.095603 303.459407 968.484104 242.735393 949.777043 214.494189zM118.295731 267.734764l140.082432-116.903523 2.01489 243.883543L118.295731 267.734764zM326.903863 437.041798c-36.280298 0-41.317011-156.205645-41.317011-156.205645 0-178.376597 41.317011-172.328857 41.317011-172.328857 40.314171 0 43.337018 172.328857 43.337018 172.328857C370.241904 438.048731 326.903863 437.041798 326.903863 437.041798zM650.403698 344.32514c-32.253588 72.560596-161.243381 66.51388-161.243381 66.51388 52.40351-179.384553-8.065699-276.128945-8.065699-276.128945 147.135058 2.01489 169.30908 60.46614 169.30908 60.46614C686.683996 271.764544 650.403698 344.32514 650.403698 344.32514zM864.262414 330.131883c-8.225335 4.644787-80.111572 16.385179-80.684624 18.099217 26.207895-78.839603 1.899256-157.472498 1.899256-157.472498 36.166711-1.161453 84.141352 1.245364 105.516172 34.954093C913.230686 260.778328 900.636856 309.599244 864.262414 330.131883z" fill="#94b0ff" p-id="3266"></path></svg>