<?xml version="1.0" standalone="no"?><!DOCTYPE svg PUBLIC "-//W3C//DTD SVG 1.1//EN" "http://www.w3.org/Graphics/SVG/1.1/DTD/svg11.dtd"><svg t="1524900727343" class="icon" style="" viewBox="0 0 1024 1024" version="1.1" xmlns="http://www.w3.org/2000/svg" p-id="2580" xmlns:xlink="http://www.w3.org/1999/xlink" width="40" height="40"><defs><style type="text/css"></style></defs><path d="M828.634985 681.278381c0 150.485363-121.934097 272.420483-272.41639 272.420483-150.432151 0-272.420483-121.93512-272.420483-272.420483 0-150.428058 166.500105-431.29798 272.420483-612.92562C654.624836 249.980401 828.634985 530.850323 828.634985 681.278381zM301.857421 396.078851c0 65.569368-53.190433 118.757754-118.757754 118.757754-65.569368 0-118.762871-53.18941-118.762871-118.757754 0-65.577554 72.54934-188.030467 118.762871-267.201621C225.972103 208.049407 301.857421 330.501296 301.857421 396.078851zM957.899024 320.354192c0 32.205493-26.110681 58.243519-58.239426 58.243519-32.146141 0-58.236356-26.038026-58.236356-58.243519 0-32.137954 35.591613-92.187609 58.236356-130.948401C920.713101 228.166583 957.899024 288.217261 957.899024 320.354192zM244.505201 864.36935c0 20.116153-16.308431 36.359093-36.364209 36.359093-20.111037 0-36.419468-16.242939-36.419468-36.359093 0-20.055778 22.286586-57.645908 36.419468-81.871659C221.281267 806.723442 244.505201 844.313571 244.505201 864.36935z" fill="#94b0ff" p-id="2581"></path></svg>