<?xml version="1.0" standalone="no"?><!DOCTYPE svg PUBLIC "-//W3C//DTD SVG 1.1//EN" "http://www.w3.org/Graphics/SVG/1.1/DTD/svg11.dtd"><svg t="1524902026031" class="icon" style="" viewBox="0 0 1024 1024" version="1.1" xmlns="http://www.w3.org/2000/svg" p-id="5317" xmlns:xlink="http://www.w3.org/1999/xlink" width="40" height="40"><defs><style type="text/css"></style></defs><path d="M693 348.3m-119.9 0a119.9 119.9 0 1 0 239.8 0 119.9 119.9 0 1 0-239.8 0Z" fill="#FFE02C" p-id="5318"></path><path d="M694 191.4h-2c-9.2 0-16.8-7.6-16.8-16.8v-73c0-9.2 7.6-16.8 16.8-16.8h1.9c9.2 0 16.8 7.6 16.8 16.8v73c0.1 9.3-7.5 16.8-16.7 16.8zM582.7 236.7l-1.4 1.4c-6.5 6.5-17.2 6.5-23.7 0L506 186.4c-6.5-6.5-6.5-17.2 0-23.7l1.4-1.4c6.5-6.5 17.2-6.5 23.7 0l51.6 51.6c6.6 6.6 6.6 17.3 0 23.8zM536.1 347.4v1.9c0 9.2-7.6 16.8-16.8 16.8h-73c-9.2 0-16.8-7.6-16.8-16.8v-1.9c0-9.2 7.6-16.8 16.8-16.8h73c9.2 0 16.8 7.5 16.8 16.8zM581.3 458.6l1.4 1.4c6.5 6.5 6.5 17.2 0 23.7l-51.6 51.6c-6.5 6.5-17.2 6.5-23.7 0L506 534c-6.5-6.5-6.5-17.2 0-23.7l51.6-51.6c6.5-6.6 17.2-6.6 23.7-0.1zM692 505.3h1.9c9.2 0 16.8 7.6 16.8 16.8v73c0 9.2-7.6 16.8-16.8 16.8H692c-9.2 0-16.8-7.6-16.8-16.8v-73c0-9.3 7.6-16.8 16.8-16.8zM803.3 460l1.4-1.4c6.5-6.5 17.2-6.5 23.7 0l51.6 51.6c6.5 6.5 6.5 17.2 0 23.7l-1.4 1.4c-6.5 6.5-17.2 6.5-23.7 0l-51.6-51.6c-6.6-6.5-6.6-17.2 0-23.7zM849.9 349.3v-1.9c0-9.2 7.6-16.8 16.8-16.8h73c9.2 0 16.8 7.6 16.8 16.8v1.9c0 9.2-7.6 16.8-16.8 16.8h-73c-9.2 0-16.8-7.6-16.8-16.8zM804.6 238.1l-1.4-1.4c-6.5-6.5-6.5-17.2 0-23.7l51.6-51.6c6.5-6.5 17.2-6.5 23.7 0l1.4 1.4c6.5 6.5 6.5 17.2 0 23.7l-51.6 51.6c-6.4 6.5-17.1 6.5-23.7 0z" fill="#FFE02C" p-id="5319"></path><path d="M647.7 404.1c-21.1-84.5-97.1-147.3-188.2-147.8-90.8-0.5-167.3 61.2-189.6 145.1-1.9-0.1-3.8-0.3-5.7-0.3-107.9-0.6-195.8 86.4-196.3 194.2-0.5 107.3 85.4 194.7 192.4 196.3v0.1h346.3v-0.4c2.4 0.1 4.7 0.4 7.1 0.4 107.9 0.6 195.8-86.4 196.3-194.2 0.5-97-69.7-177.6-162.3-193.4z" fill="#94B0FF" p-id="5320"></path><path d="M694.5 871.6h-24.8l12.4-21.5c3.4-5.9 1.4-13.5-4.5-17l-1.1-0.6c-5.9-3.4-13.5-1.4-17 4.5l-12.4 21.5-12.4-21.5c-3.4-5.9-11-8-17-4.5l-1.1 0.6c-5.9 3.4-8 11-4.5 17l12.4 21.5h-24.8c-6.8 0-12.4 5.6-12.4 12.4v1.2c0 6.8 5.6 12.4 12.4 12.4h24.8l-12.4 21.5c-3.4 5.9-1.4 13.5 4.5 17l1.1 0.6c5.9 3.4 13.5 1.4 17-4.5l12.4-21.5 12.4 21.5c3.4 5.9 11 8 17 4.5l1.1-0.6c5.9-3.4 8-11 4.5-17l-12.4-21.5h24.8c6.8 0 12.4-5.6 12.4-12.4V884c0-6.9-5.6-12.4-12.4-12.4zM505.9 871.6h-24.8l12.4-21.5c3.4-5.9 1.4-13.5-4.5-17l-1.1-0.6c-5.9-3.4-13.5-1.4-17 4.5l-12.4 21.5-12.4-21.5c-3.4-5.9-11-8-17-4.5l-1.1 0.6c-5.9 3.4-8 11-4.5 17l12.4 21.5h-24.8c-6.8 0-12.4 5.6-12.4 12.4v1.2c0 6.8 5.6 12.4 12.4 12.4h24.8l-12.4 21.5c-3.4 5.9-1.4 13.5 4.5 17l1.1 0.6c5.9 3.4 13.5 1.4 17-4.5l12.4-21.5 12.4 21.5c3.4 5.9 11 8 17 4.5l1.1-0.6c5.9-3.4 8-11 4.5-17l-12.4-21.5h24.8c6.8 0 12.4-5.6 12.4-12.4V884c0-6.9-5.5-12.4-12.4-12.4zM317.4 871.6h-24.8L305 850c3.4-5.9 1.4-13.5-4.5-17l-1.1-0.6c-5.9-3.4-13.5-1.4-17 4.5L270 858.5 257.5 837c-3.4-5.9-11-8-17-4.5l-1.1 0.6c-5.9 3.4-8 11-4.5 17l12.4 21.5h-24.8c-6.8 0-12.4 5.6-12.4 12.4v1.2c0 6.8 5.6 12.4 12.4 12.4h24.8L235 919.1c-3.4 5.9-1.4 13.5 4.5 17l1.1 0.6c5.9 3.4 13.5 1.4 17-4.5l12.4-21.5 12.4 21.5c3.4 5.9 11 8 17 4.5l1.1-0.6c5.9-3.4 8-11 4.5-17l-12.4-21.5h24.8c6.8 0 12.4-5.6 12.4-12.4V884c0-6.9-5.6-12.4-12.4-12.4z" fill="#6695FF" p-id="5321"></path></svg>