<?xml version="1.0" standalone="no"?><!DOCTYPE svg PUBLIC "-//W3C//DTD SVG 1.1//EN" "http://www.w3.org/Graphics/SVG/1.1/DTD/svg11.dtd"><svg t="1524902147733" class="icon" style="" viewBox="0 0 1024 1024" version="1.1" xmlns="http://www.w3.org/2000/svg" p-id="6112" xmlns:xlink="http://www.w3.org/1999/xlink" width="40" height="40"><defs><style type="text/css"></style></defs><path d="M421.9 457.6H96.2c-17.6 0-32-14.4-32-32s14.4-32 32-32h325.7c17.6 0 32 14.4 32 32s-14.4 32-32 32zM423.7 630.4H240.6c-16.6 0-30.2-13.6-30.2-30.2v-3.6c0-16.6 13.6-30.2 30.2-30.2h183.1c16.6 0 30.2 13.6 30.2 30.2v3.6c0 16.6-13.6 30.2-30.2 30.2z" fill="#94b0ff" p-id="6113"></path><path d="M416.1 457.6c-17.7 0-32-14.3-32-32s14.3-32 32-32c32.5 0 59-26.5 59-59s-26.5-59-59-59c-17.7 0-32-14.3-32-32s14.3-32 32-32c67.8 0 123 55.2 123 123s-55.2 123-123 123zM416.1 806.7c-17.7 0-32-14.3-32-32s14.3-32 32-32c30.9 0 56.1-25.2 56.1-56.1s-25.2-56.1-56.1-56.1c-17.7 0-32-14.3-32-32s14.3-32 32-32c66.2 0 120.1 53.9 120.1 120.1 0 66.2-53.9 120.1-120.1 120.1z" fill="#94b0ff" p-id="6114"></path><path d="M637.7 790.8m-49 0a49 49 0 1 0 98 0 49 49 0 1 0-98 0Z" fill="#94b0ff" p-id="6115"></path><path d="M637.7 608.4m-49 0a49 49 0 1 0 98 0 49 49 0 1 0-98 0Z" fill="#94b0ff" p-id="6116"></path><path d="M637.7 426m-49 0a49 49 0 1 0 98 0 49 49 0 1 0-98 0Z" fill="#94b0ff" p-id="6117"></path><path d="M637.7 243.6m-49 0a49 49 0 1 0 98 0 49 49 0 1 0-98 0Z" fill="#94b0ff" p-id="6118"></path><path d="M774 695.6m-49 0a49 49 0 1 0 98 0 49 49 0 1 0-98 0Z" fill="#94b0ff" p-id="6119"></path><path d="M774 513.2m-49 0a49 49 0 1 0 98 0 49 49 0 1 0-98 0Z" fill="#94b0ff" p-id="6120"></path><path d="M774 330.8m-49 0a49 49 0 1 0 98 0 49 49 0 1 0-98 0Z" fill="#94b0ff" p-id="6121"></path><path d="M910.3 604.4m-49 0a49 49 0 1 0 98 0 49 49 0 1 0-98 0Z" fill="#94b0ff" p-id="6122"></path><path d="M910.3 422m-49 0a49 49 0 1 0 98 0 49 49 0 1 0-98 0Z" fill="#94b0ff" p-id="6123"></path></svg>