<?xml version="1.0" encoding="iso-8859-1"?>
<!-- Generator: Adobe Illustrator 19.0.0, SVG Export Plug-In . SVG Version: 6.00 Build 0)  -->
<svg version="1.1" id="&#x56FE;&#x5C42;_1" xmlns="http://www.w3.org/2000/svg" xmlns:xlink="http://www.w3.org/1999/xlink" x="0px"
	 y="0px" viewBox="5 -5 40 40" style="enable-background:new 5 -5 40 40;" xml:space="preserve">
<path style="fill:#6695FF;" d="M19.27,22.379c0,0.906-0.734,1.645-1.645,1.645c-0.906,0-1.645-0.734-1.645-1.645
	c0-0.91,1.645-2.867,1.645-2.867S19.27,21.473,19.27,22.379z M19.32,29.113c0,0.906-0.734,1.645-1.645,1.645
	c-0.906,0-1.645-0.734-1.645-1.645s1.645-2.867,1.645-2.867S19.32,28.207,19.32,29.113z"/>
<path style="fill:#94B0FF;" d="M32.434,4.453c-0.758-3.02-3.473-5.266-6.727-5.285c-3.246-0.02-5.98,2.188-6.777,5.188
	c-0.066-0.004-0.133-0.012-0.203-0.012c-3.855-0.02-7,3.09-7.02,6.945c-0.02,3.832,3.051,6.957,6.875,7.016v0.004h12.383v-0.016
	c0.086,0.004,0.168,0.016,0.254,0.016c3.855,0.02,7-3.09,7.02-6.945C38.254,7.902,35.742,5.02,32.434,4.453z"/>
<path style="fill:#FFE02C;" d="M28.836,21.246l-1.969-0.715c-0.141-0.051-0.211-0.207-0.16-0.348l2.344-6.437
	c0.102-0.277-0.25-0.492-0.449-0.277l-6.203,6.527c-0.133,0.141-0.078,0.375,0.105,0.441l1.969,0.715
	c0.141,0.051,0.211,0.207,0.16,0.348l-2.344,6.438c-0.102,0.277,0.25,0.492,0.449,0.277l6.203-6.531
	C29.074,21.543,29.02,21.313,28.836,21.246z"/>
<rect x="31.963" y="20.594" transform="matrix(0.7071 -0.7071 0.7071 0.7071 -5.8312 30.1559)" style="fill:#6695FF;" width="3.046" height="3.046"/>
<rect x="31.963" y="27.295" transform="matrix(0.7071 -0.7071 0.7071 0.7071 -10.5699 32.1187)" style="fill:#6695FF;" width="3.046" height="3.046"/>
</svg>
