<?xml version="1.0" standalone="no"?><!DOCTYPE svg PUBLIC "-//W3C//DTD SVG 1.1//EN" "http://www.w3.org/Graphics/SVG/1.1/DTD/svg11.dtd"><svg t="1524901699397" class="icon" style="" viewBox="0 0 1024 1024" version="1.1" xmlns="http://www.w3.org/2000/svg" p-id="3774" xmlns:xlink="http://www.w3.org/1999/xlink" width="40" height="40"><defs><style type="text/css"></style></defs><path d="M243.8 702.8c0 23.2-18.8 42.1-42.1 42.1s-42.1-18.8-42.1-42.1c0-23.2 42.1-73.4 42.1-73.4s42.1 50.1 42.1 73.4zM367.9 702.8c0 23.2-18.8 42.1-42.1 42.1s-42.1-18.8-42.1-42.1c0-23.2 42.1-73.4 42.1-73.4s42.1 50.1 42.1 73.4zM492 702.8c0 23.2-18.8 42.1-42.1 42.1s-42.1-18.8-42.1-42.1c0-23.2 42.1-73.4 42.1-73.4s42.1 50.1 42.1 73.4zM369 872.5c0 23.2-18.8 42.1-42.1 42.1-23.2 0-42.1-18.8-42.1-42.1s42.1-73.4 42.1-73.4 42.1 50.2 42.1 73.4zM492.8 872.5c0 23.2-18.8 42.1-42.1 42.1-23.2 0-42.1-18.8-42.1-42.1s42.1-73.4 42.1-73.4 42.1 50.2 42.1 73.4zM616.1 702.8c0 23.2-18.8 42.1-42.1 42.1-23.2 0-42.1-18.8-42.1-42.1 0-23.2 42.1-73.4 42.1-73.4s42.1 50.1 42.1 73.4zM616.7 872.5c0 23.2-18.8 42.1-42.1 42.1s-42.1-18.8-42.1-42.1 42.1-73.4 42.1-73.4 42.1 50.2 42.1 73.4zM740.2 702.8c0 23.2-18.8 42.1-42.1 42.1S656 726 656 702.8c0-23.2 42.1-73.4 42.1-73.4s42.1 50.1 42.1 73.4zM740.5 872.5c0 23.2-18.8 42.1-42.1 42.1-23.2 0-42.1-18.8-42.1-42.1s42.1-73.4 42.1-73.4 42.1 50.2 42.1 73.4zM864.3 702.8c0 23.2-18.8 42.1-42.1 42.1s-42.1-18.8-42.1-42.1c0-23.2 42.1-73.4 42.1-73.4s42.1 50.1 42.1 73.4zM864.3 872.5c0 23.2-18.8 42.1-42.1 42.1-23.2 0-42.1-18.8-42.1-42.1s42.1-73.4 42.1-73.4 42.1 50.2 42.1 73.4zM245.1 872.5c0 23.2-18.8 42.1-42.1 42.1s-42-18.9-42-42.1 42.1-73.4 42.1-73.4 42 50.2 42 73.4z" fill="#6695FF" p-id="3775"></path><path d="M700.9 243.9c-19.4-77.3-88.9-134.8-172.2-135.3-83.2-0.5-153.1 56-173.5 132.8-1.7-0.1-3.5-0.3-5.2-0.3-98.7-0.5-179.2 79.1-179.7 177.8-0.5 98.1 78.1 178.1 176 179.6v0.1h317v-0.4c2.2 0.1 4.3 0.4 6.5 0.4 98.7 0.5 179.2-79.1 179.7-177.8 0.4-88.7-63.9-162.5-148.6-176.9z" fill="#94B0FF" p-id="3776"></path></svg>