<?xml version="1.0" standalone="no"?><!DOCTYPE svg PUBLIC "-//W3C//DTD SVG 1.1//EN" "http://www.w3.org/Graphics/SVG/1.1/DTD/svg11.dtd"><svg t="1524900258358" class="icon" style="" viewBox="0 0 1024 1024" version="1.1" xmlns="http://www.w3.org/2000/svg" p-id="4447" xmlns:xlink="http://www.w3.org/1999/xlink" width="40" height="40"><defs><style type="text/css"></style></defs><path d="M365.3 700.9c0 23.2-18.8 42.1-42.1 42.1-23.2 0-42.1-18.8-42.1-42.1s42.1-73.4 42.1-73.4 42.1 50.2 42.1 73.4zM366.6 873.3c0 23.2-18.8 42.1-42.1 42.1-23.2 0-42.1-18.8-42.1-42.1s42.1-73.4 42.1-73.4 42.1 50.2 42.1 73.4zM775.7 873.3c0 23.2-18.8 42.1-42.1 42.1-23.2 0-42.1-18.8-42.1-42.1s42.1-73.4 42.1-73.4 42.1 50.2 42.1 73.4zM774.4 700.9c0 23.2-18.8 42.1-42.1 42.1s-42.1-18.8-42.1-42.1 42.1-73.4 42.1-73.4 42.1 50.2 42.1 73.4z" fill="#6695FF" p-id="4448"></path><path d="M702.3 242c-19.4-77.3-88.9-134.8-172.2-135.3-83.1-0.5-153.1 56-173.5 132.8-1.7-0.1-3.4-0.3-5.2-0.3-98.7-0.5-179.2 79.1-179.7 177.8-0.5 98.1 78.1 178.1 176 179.6v0.1h317v-0.4c2.2 0.1 4.3 0.4 6.5 0.4 98.7 0.5 179.2-79.1 179.7-177.8 0.4-88.6-63.9-162.4-148.6-176.9z" fill="#94B0FF" p-id="4449"></path><path d="M610.2 671.9l-50.4-18.3c-3.6-1.3-5.4-5.3-4.1-8.9l60-164.8c2.6-7.1-6.4-12.6-11.5-7.1L445.4 639.9c-3.4 3.6-2 9.6 2.7 11.3l50.4 18.3c3.6 1.3 5.4 5.3 4.1 8.9l-60 164.8c-2.6 7.1 6.4 12.6 11.5 7.1l158.8-167.2c3.4-3.6 2-9.5-2.7-11.2z" fill="#FFE02C" p-id="4450"></path></svg>